<svg width="474" height="396" viewBox="0 0 474 396" fill="none" xmlns="http://www.w3.org/2000/svg">
<g filter="url(#filter0_d)">
<path fill-rule="evenodd" clip-rule="evenodd" d="M11.2451 4.33655C161.859 -0.0797265 312.473 -0.219614 463.086 4.33655C464.99 4.39404 466.473 5.8981 466.549 7.79931C471.316 127.645 470.755 247.49 466.549 367.335C466.482 369.237 464.989 370.798 463.086 370.798C419.93 370.798 376.774 370.798 333.618 370.798C333.065 374.144 332.511 377.536 331.96 384.199C331.803 386.088 330.391 387.557 328.497 387.662C267.609 391.026 206.722 391.026 145.835 387.662C143.94 387.557 142.529 386.095 142.372 384.199C141.82 377.536 141.266 374.144 140.712 370.798C97.5568 370.798 54.4011 370.798 11.2453 370.798C9.34255 370.798 7.84935 369.239 7.78259 367.335C3.57641 247.489 3.01606 127.644 7.78259 7.79931C7.8581 5.89625 9.34149 4.39219 11.2451 4.33655Z" fill="#272727"/>
</g>
<path fill-rule="evenodd" clip-rule="evenodd" d="M41.8603 34.1144H432.471C434.085 34.1144 435.405 35.4356 435.405 37.0488V324.627C435.405 326.241 434.084 327.562 432.471 327.562H41.8603C40.247 327.562 38.9258 326.242 38.9258 324.627V37.0488C38.9258 35.4346 40.246 34.1144 41.8603 34.1144Z" fill="url(#paint0_radial)"/>
<path fill-rule="evenodd" clip-rule="evenodd" d="M50.0157 40.2411H424.317C425.863 40.2411 427.129 41.5072 427.129 43.0532V318.625C427.129 320.17 425.862 321.437 424.317 321.437H50.0157C48.4698 321.437 47.2036 320.172 47.2036 318.625V43.0532C47.2036 41.5062 48.469 40.2411 50.0157 40.2411Z" fill="#1B1C20"/>
<path fill-rule="evenodd" clip-rule="evenodd" d="M147.678 355.879C209.579 355.879 271.482 355.879 333.383 355.879C335.25 355.879 336.932 357.421 336.778 359.275C335.679 372.526 334.578 372.58 333.479 385.831C333.326 387.684 331.942 389.123 330.084 389.226C270.381 392.525 210.679 392.525 150.977 389.226C149.119 389.123 147.736 387.691 147.582 385.831C146.482 372.58 145.381 372.526 144.282 359.275C144.128 357.414 145.811 355.879 147.678 355.879Z" fill="#404040"/>
<path fill-rule="evenodd" clip-rule="evenodd" d="M66.5503 355.879C128.452 355.879 345.88 355.879 407.781 355.879C409.648 355.879 411.33 357.421 411.176 359.275C410.077 372.526 408.976 372.58 407.877 385.831C407.723 387.684 406.34 389.123 404.482 389.226C344.779 392.525 129.552 392.525 69.8496 389.226C67.9916 389.123 66.6083 387.691 66.4541 385.831C65.3549 372.58 64.2538 372.526 63.1548 359.275C63.0009 357.414 64.6833 355.879 66.5503 355.879Z" fill="#404040"/>
<path fill-rule="evenodd" clip-rule="evenodd" d="M67.6979 353.655C130.828 353.655 343.503 353.655 406.633 353.655C408.537 353.655 410.252 355.228 410.096 357.118C408.976 370.632 407.851 370.687 406.731 384.201C406.575 386.091 405.163 387.559 403.268 387.664C342.381 391.029 131.95 391.029 71.0626 387.664C69.1678 387.559 67.7569 386.098 67.5998 384.201C66.4789 370.687 65.3558 370.632 64.2351 357.118C64.078 355.221 65.7937 353.655 67.6979 353.655Z" fill="#333333"/>
<path d="M80.4296 380.649C81.3804 380.649 82.1512 379.878 82.1512 378.928C82.1512 377.977 81.3804 377.206 80.4296 377.206C79.4788 377.206 78.708 377.977 78.708 378.928C78.708 379.878 79.4788 380.649 80.4296 380.649Z" stroke="#595959" stroke-width="0.934706"/>
<path d="M101.49 381.457C102.887 381.457 104.02 380.325 104.02 378.928C104.02 377.531 102.887 376.398 101.49 376.398C100.093 376.398 98.9604 377.531 98.9604 378.928C98.9604 380.325 100.093 381.457 101.49 381.457Z" stroke="#595959" stroke-width="0.934706"/>
<path d="M116.068 379.788C116.543 379.788 116.929 379.403 116.929 378.928C116.929 378.452 116.543 378.067 116.068 378.067C115.592 378.067 115.207 378.452 115.207 378.928C115.207 379.403 115.592 379.788 116.068 379.788Z" fill="#89CA00" stroke="#98979B" stroke-width="0.467353"/>
<path d="M122.745 379.788C123.22 379.788 123.605 379.403 123.605 378.928C123.605 378.452 123.22 378.067 122.745 378.067C122.269 378.067 121.884 378.452 121.884 378.928C121.884 379.403 122.269 379.788 122.745 379.788Z" fill="#B42505" stroke="#98979B" stroke-width="0.467353"/>
<path fill-rule="evenodd" clip-rule="evenodd" d="M161.148 365.811C191.887 365.811 282.444 365.811 313.183 365.811C297.874 366.829 252.792 368.865 237.348 368.865C221.784 368.865 176.578 366.829 161.148 365.811Z" fill="url(#paint1_linear)"/>
<path d="M383.643 381.457C385.04 381.457 386.172 380.325 386.172 378.928C386.172 377.531 385.04 376.398 383.643 376.398C382.246 376.398 381.113 377.531 381.113 378.928C381.113 380.325 382.246 381.457 383.643 381.457Z" stroke="#595959" stroke-width="0.934706"/>
<path d="M392.794 381.457C394.191 381.457 395.323 380.325 395.323 378.928C395.323 377.531 394.191 376.398 392.794 376.398C391.397 376.398 390.264 377.531 390.264 378.928C390.264 380.325 391.397 381.457 392.794 381.457Z" stroke="#595959" stroke-width="0.934706"/>
<path d="M352.284 381.457C353.681 381.457 354.814 380.325 354.814 378.928C354.814 377.531 353.681 376.398 352.284 376.398C350.887 376.398 349.755 377.531 349.755 378.928C349.755 380.325 350.887 381.457 352.284 381.457Z" stroke="#595959" stroke-width="0.934706"/>
<path d="M361.438 381.457C362.835 381.457 363.968 380.325 363.968 378.928C363.968 377.531 362.835 376.398 361.438 376.398C360.041 376.398 358.909 377.531 358.909 378.928C358.909 380.325 360.041 381.457 361.438 381.457Z" stroke="#595959" stroke-width="0.934706"/>
<path d="M372.539 381.748C374.097 381.748 375.359 380.485 375.359 378.928C375.359 377.37 374.097 376.107 372.539 376.107C370.981 376.107 369.719 377.37 369.719 378.928C369.719 380.485 370.981 381.748 372.539 381.748Z" stroke="#595959" stroke-width="0.934706"/>
<path fill-rule="evenodd" clip-rule="evenodd" d="M237.176 375.187C232.095 375.187 227.416 381.636 223.764 390.688C232.698 390.761 241.631 390.761 250.565 390.688C246.913 381.636 242.258 375.187 237.176 375.187Z" fill="#373737" stroke="#636363" stroke-width="1.86929"/>
<path d="M237.165 386.902C238.352 386.902 239.314 384.904 239.314 382.439C239.314 379.973 238.352 377.975 237.165 377.975C235.979 377.975 235.017 379.973 235.017 382.439C235.017 384.904 235.979 386.902 237.165 386.902Z" fill="#272727" stroke="#595959" stroke-width="0.511139"/>
<defs>
<filter id="filter0_d" x="0.414551" y="0.97168" width="473.502" height="397.213" filterUnits="userSpaceOnUse" color-interpolation-filters="sRGB">
<feFlood flood-opacity="0" result="BackgroundImageFix"/>
<feColorMatrix in="SourceAlpha" type="matrix" values="0 0 0 0 0 0 0 0 0 0 0 0 0 0 0 0 0 0 127 0"/>
<feOffset dy="4"/>
<feGaussianBlur stdDeviation="2"/>
<feColorMatrix type="matrix" values="0 0 0 0 0 0 0 0 0 0 0 0 0 0 0 0 0 0 0.25 0"/>
<feBlend mode="normal" in2="BackgroundImageFix" result="effect1_dropShadow"/>
<feBlend mode="normal" in="SourceGraphic" in2="effect1_dropShadow" result="shape"/>
</filter>
<radialGradient id="paint0_radial" cx="0" cy="0" r="1" gradientUnits="userSpaceOnUse" gradientTransform="translate(237.165 180.838) scale(199.061)">
<stop stop-color="#282828"/>
<stop offset="0.811765" stop-color="#323232"/>
<stop offset="1" stop-color="#212121"/>
</radialGradient>
<linearGradient id="paint1_linear" x1="237.165" y1="365.811" x2="237.165" y2="368.865" gradientUnits="userSpaceOnUse">
<stop stop-color="#2F2F2F"/>
<stop offset="1" stop-color="#626262"/>
</linearGradient>
</defs>
</svg>
